<?xml version="1.0" encoding="utf-8" ?><svg xmlns="http://www.w3.org/2000/svg" xmlns:xlink="http://www.w3.org/1999/xlink" width="1536" height="1024" viewBox="0 0 1536 1024"><path fill="#FEFEFE" d="M0 0L1536 0L1536 1024L0 1024L0 0Z"/><path fill="#F8F8F8" d="M850.183 115.094C853.28 114.852 855.757 115.055 858.783 115.082C919.072 115.634 979.044 154.323 987.038 217.405C988.956 232.542 987.477 244.493 985.134 259.645C906.471 258.201 824.068 259.338 745.236 259.356L664.424 259.293C652.74 259.283 641.012 259.22 629.368 259.348C621.808 259.431 616.283 259.367 610.696 264.968C607.516 268.156 606.061 271.811 605.717 276.263C604.765 288.598 605.183 301.287 605.207 313.683C605.368 339.009 605.353 364.336 605.161 389.662C602.75 387.307 599.826 384.913 597.239 382.7C579.893 369.03 564.517 363.093 542.952 357.908C518.476 351.951 488.078 351.693 468.454 333.595C440.654 307.957 460.572 262.396 481.767 239.425C507.31 211.957 544.157 197.91 581.498 201.404C587.811 202.025 594.757 203.727 601.171 204.626C617.102 206.859 631.194 206.816 646.764 202.973C671.644 196.833 690.652 180.688 711.202 166.06C754.517 135.227 796.902 117.357 850.183 115.094Z"/><path fill="#2D2D4E" d="M1042.23 633.956C1053.73 634.999 1068.33 634.887 1080.04 635.109C1100.54 635.69 1121.05 635.801 1141.55 635.441C1141.63 638.315 1141.59 641.939 1142.08 644.709L1143 659.987L1144.92 654.068C1149.97 654.391 1156.95 654.023 1162.19 653.955C1161.21 662.15 1168.49 673.658 1159.84 681.259C1155.75 684.849 1149.47 681.816 1144.94 680.37C1144.16 683.135 1144.32 684.58 1144.38 687.39C1145.06 705.56 1151.1 881.657 1148.98 885.005C1147.44 885.296 1146.41 885.475 1144.85 885.612C1144.86 888.525 1144.85 891.347 1145.05 894.255C1140.09 894.161 1131.03 894.582 1126.69 893.645C1115.57 893.572 1096.37 898.251 1095.5 911.885C1088 910.95 1066.57 912.54 1061.51 911.176L1060.93 909.388C1061.13 904.333 1060.47 899.166 1059.46 894.227C1054.86 894.249 1047.19 894.539 1042.91 893.714C1042.88 891.111 1042.69 888.362 1042.56 885.75C1040.51 885.592 1039.71 885.694 1037.93 884.766C1036.65 881.111 1037.73 847.466 1037.83 841.193C1038.31 804.802 1039.17 768.417 1040.4 732.043C1041.37 700.585 1042.7 665.332 1042.23 633.956Z"/><path fill="#F8F8F8" d="M1094.39 682.573C1099.18 710.395 1101.05 742.108 1104.6 770.35C1107.57 793.895 1110.63 818.417 1113.96 841.847C1114.75 847.439 1118.78 881.573 1119.8 884.662C1121.81 885.683 1123.31 885.425 1125.58 885.389L1126.69 893.645C1115.57 893.572 1096.37 898.251 1095.5 911.885C1088 910.95 1066.57 912.54 1061.51 911.176L1060.93 909.388C1061.13 904.333 1060.47 899.166 1059.46 894.227C1059.06 891.557 1058.66 888.425 1059.46 885.89C1062.61 885.176 1061.88 885.823 1063.66 883.772L1094.39 682.573Z"/><path fill="#F8A8A0" d="M1144.92 654.068C1149.97 654.391 1156.95 654.023 1162.19 653.955C1161.21 662.15 1168.49 673.658 1159.84 681.259C1155.75 684.849 1149.47 681.816 1144.94 680.37C1144.16 683.135 1144.32 684.58 1144.38 687.39C1143.62 683.402 1143.26 665.126 1143 659.987L1144.92 654.068Z"/><path fill="#F8A8A0" d="M1125.58 885.389C1130.44 885.333 1140.3 884.969 1144.85 885.612C1144.86 888.525 1144.85 891.347 1145.05 894.255C1140.09 894.161 1131.03 894.582 1126.69 893.645L1125.58 885.389Z"/><path fill="#F8A8A0" d="M1042.56 885.75C1046.38 885.092 1055.8 884.989 1059.46 885.89C1058.66 888.425 1059.06 891.557 1059.46 894.227C1054.86 894.249 1047.19 894.539 1042.91 893.714C1042.88 891.111 1042.69 888.362 1042.56 885.75Z"/><path fill="#2D2D4E" d="M347.052 625.28C367.684 629.238 392.938 628.016 414.122 627.109C419.364 626.884 430.444 624.402 434.479 624.593C435.305 627.087 435.354 627.893 435.594 630.526C437.962 653.672 440.854 676.591 442.052 699.848C442.955 717.381 444.603 869.558 440.389 874.458C440.224 874.65 440.038 874.822 439.862 875.005C432.36 875.394 422.616 874.704 415.691 875.447C416.469 880.771 415.03 888.512 413.778 893.752C412.894 899.907 412.219 903.954 412.824 910.275C411.405 912.448 386.012 911.925 382.725 911.075L382.494 909.957C379.093 899.765 367.68 896.405 357.779 895.935C352.116 893.16 351.212 891.877 347.951 886.47C347.849 883.144 347.595 878.628 348.708 875.581C339.45 875.517 332.753 875.359 323.628 874.021C323.301 871.342 323.882 868.263 324.242 865.578C328.5 833.793 332.98 801.975 335.733 770.019C338.247 740.847 338.673 711.562 340.58 682.348C341.832 663.16 344.577 644.327 347.052 625.28Z"/><path fill="#F8F8F8" d="M393.156 684.674C401.641 746.948 405.102 810.583 411.955 873.031C412.093 874.287 414.624 874.977 415.691 875.447C416.469 880.771 415.03 888.512 413.778 893.752C412.894 899.907 412.219 903.954 412.824 910.275C411.405 912.448 386.012 911.925 382.725 911.075L382.494 909.957C379.093 899.765 367.68 896.405 357.779 895.935C352.116 893.16 351.212 891.877 347.951 886.47C347.849 883.144 347.595 878.628 348.708 875.581L350.4 875.112C355.418 870.232 389.365 704.95 393.156 684.674Z"/><path fill="#6C6EFE" d="M1090.49 458.509C1097.25 455.853 1109.37 457.154 1116.71 457.802C1134.87 466.247 1158.31 476.853 1164.35 497.882C1176.75 541.013 1176.85 589.174 1167.42 632.961C1166.29 638.248 1166.68 651.508 1162.19 653.955C1156.95 654.023 1149.97 654.391 1144.92 654.068L1143 659.987L1142.08 644.709C1141.59 641.939 1141.63 638.315 1141.55 635.441C1121.05 635.801 1100.54 635.69 1080.04 635.109C1068.33 634.887 1053.73 634.999 1042.23 633.956C1041.53 624.098 1042.58 602.439 1042.76 591.842C1043.21 567.758 1043.31 543.669 1043.05 519.582C1024.55 522.038 996.2 525.778 977.246 525.86C974.132 525.873 962.578 519.372 959.104 517.528C943.247 508.764 931.435 499.558 916.511 489.833C912.505 486.507 902.339 480.029 899.756 476.006L900.349 474.122C902.535 471.91 910.495 460.452 912.363 457.491C912.906 457.413 913.449 457.335 913.992 457.256C924.913 462.88 935.932 468.385 946.807 474.097C958.617 480.3 970.689 485.479 982.877 490.872C1003.88 482.667 1075.62 470.262 1090.49 458.509Z"/><path fill="#F8F8F8" d="M1142.08 644.709C1142.02 627.827 1143.62 597.023 1145.1 580.385C1147.48 586.719 1146.06 644.929 1144.92 654.068L1143 659.987L1142.08 644.709Z"/><path fill="#5C5CE9" d="M1150.07 536.229L1150.91 537.196C1152.52 549.988 1151.79 586.289 1148.52 598.851C1148.32 597.19 1149.37 584.36 1149.76 582.399C1152.51 568.584 1148.25 549.019 1150.07 536.229Z"/><path fill="#2D2D4E" d="M1216.28 634.724C1235.45 636.217 1272.02 634.465 1290.8 630.726C1291.44 638.023 1292.01 645.327 1292.51 652.635L1300.09 652.98C1297.13 664.466 1302.1 672.59 1295.01 683.794C1299.61 749.534 1306.03 818.687 1309.38 884.003C1306.37 884.54 1306.23 884.016 1304.62 885.989C1304.27 889.649 1305.04 891.244 1304.87 894.211C1299.85 894.213 1290.98 894.486 1286.41 893.585C1275.35 893.014 1255.44 898.194 1254.51 911.784C1247.09 911.051 1233.42 911.593 1225.58 911.71C1225.72 909.144 1226.28 906.182 1225.02 904.169C1224.9 900.676 1224.42 897.644 1223.93 894.194C1218.52 894.152 1210.21 894.528 1205.22 893.589L1204.94 885.607C1202.91 885.465 1202.5 885.399 1200.53 884.929C1199.17 882.23 1203.02 709.542 1203.09 688.1C1196.49 692.064 1188.89 692.186 1184.28 684.997C1178.91 676.623 1189.03 663.628 1190.25 657.041C1193.51 656.691 1205.18 656.495 1207.8 657.833C1208.47 657.426 1210.65 657.277 1212.09 656.588C1213.43 652.665 1215.45 639.476 1216.28 634.724Z"/><path fill="#F8F8F8" d="M1250.21 691.999C1253.02 717.682 1257.53 743.863 1261.5 769.446L1278.97 884.169C1282.36 884.493 1282.84 884.009 1285.38 885.756C1286.53 888.362 1286.33 890.703 1286.41 893.585C1275.35 893.014 1255.44 898.194 1254.51 911.784C1247.09 911.051 1233.42 911.593 1225.58 911.71C1225.72 909.144 1226.28 906.182 1225.02 904.169C1224.9 900.676 1224.42 897.644 1223.93 894.194C1223.95 891.21 1224.09 888.631 1224.28 885.664C1225.55 885.528 1226.92 885.294 1228.19 885.104C1229.82 882.886 1232.88 845.704 1233.55 840.663C1240.13 791.116 1245.16 741.705 1250.21 691.999Z"/><path fill="#F8A8A0" d="M1190.25 657.041C1193.51 656.691 1205.18 656.495 1207.8 657.833C1207.79 670.497 1209.14 676.917 1203.09 688.1C1196.49 692.064 1188.89 692.186 1184.28 684.997C1178.91 676.623 1189.03 663.628 1190.25 657.041Z"/><path fill="#F8A8A0" d="M1309.38 884.003C1306.37 884.54 1306.23 884.016 1304.62 885.989C1304.27 889.649 1305.04 891.244 1304.87 894.211C1299.85 894.213 1290.98 894.486 1286.41 893.585C1286.33 890.703 1286.53 888.362 1285.38 885.756C1282.84 884.009 1282.36 884.493 1278.97 884.169C1285.96 883.744 1302.35 883.599 1309.38 884.003Z"/><path fill="#F8A8A0" d="M1204.94 885.607C1209.76 885.11 1219.49 885 1224.28 885.664C1224.09 888.631 1223.95 891.21 1223.93 894.194C1218.52 894.152 1210.21 894.528 1205.22 893.589L1204.94 885.607Z"/><path fill="#F8A8A0" d="M1292.51 652.635L1300.09 652.98C1297.13 664.466 1302.1 672.59 1295.01 683.794C1293.91 674.546 1293.29 662.126 1292.51 652.635Z"/><path fill="#6C6EFE" d="M372.057 475.931C380.914 487.494 396.996 494.03 405.818 478.515C434.915 483.507 455.276 496.954 480.996 510.914C487.994 505.847 519.256 482.488 525.015 481.025C527.871 485.048 534.492 496.274 537.108 498.96C537.33 500.209 537.877 501.46 536.63 502.417C526.222 510.412 492.748 541.59 482.044 543.211C471.623 544.789 445.324 529.252 435.013 524.998C434.884 541.894 430.531 556.531 430.892 573.96C431.312 594.25 436.204 610.225 435.594 630.526C435.354 627.893 435.305 627.087 434.479 624.593C430.444 624.402 419.364 626.884 414.122 627.109C392.938 628.016 367.684 629.238 347.052 625.28C347.972 612.56 352.352 606.942 354.546 596.862C356.877 586.15 354.371 562.823 353.373 551.009C351.871 563.622 339.653 650.252 333.712 655.714C332.525 655.888 331.282 656.104 330.093 656.198C327.747 655.665 317.976 655.091 315.063 654.86L311.911 654.215C311.229 653.6 310.336 653.091 310.462 652.193C316.406 609.996 318.609 567.014 325.959 524.96C330.772 497.425 344.671 482.362 372.057 475.931Z"/><path fill="#6C6EFE" d="M1261.49 454.627C1297.62 473.223 1309.73 483.346 1310.87 526.162C1311.33 543.327 1316 568.39 1313.72 585.305C1312.2 596.599 1305.2 647.009 1300.09 652.98L1292.51 652.635C1292.01 645.327 1291.44 638.023 1290.8 630.726C1272.02 634.465 1235.45 636.217 1216.28 634.724C1215.45 639.476 1213.43 652.665 1212.09 656.588C1210.65 657.277 1208.47 657.426 1207.8 657.833C1205.18 656.495 1193.51 656.691 1190.25 657.041C1189.74 656.772 1188.64 656.238 1188.62 655.751C1188.39 650.505 1191.16 635.585 1191.84 631.042C1195.24 608.215 1198.2 586.91 1199.58 563.871C1200.76 544.103 1200.39 522.004 1202.98 502.659C1205.19 486.231 1219.18 471.255 1232.68 462.162C1242.14 457.249 1251.15 456.074 1261.49 454.627Z"/><path fill="#FED032" d="M916.511 489.833C931.435 499.558 943.247 508.764 959.104 517.528C958.702 533.395 961.267 619.157 956.719 624.81C953.916 628.293 948.152 629.175 943.938 629.377C924.969 630.286 905.44 629.155 886.399 629.206C869.503 629.251 847.209 630.66 831.046 628.978C828.061 628.668 825.332 628.188 823.134 625.962C821.33 624.134 820.359 622.027 820.023 619.493C818.43 607.471 819.75 592.629 819.757 580.298L819.896 497.376C822.051 494.117 824.496 490.624 828.785 490.261C838.804 489.413 849.106 489.806 859.187 489.834L916.511 489.833Z"/><path fill="#EEB12E" d="M848.085 543.994C862.326 542.897 912.987 543.878 930.055 544.341C930.685 544.358 931.1 546.698 931.376 547.688C922.268 548.322 852.364 549.221 848.451 546.765L848.085 543.994Z"/><path fill="#EEB12E" d="M847.62 521.549C854.423 520.713 880.344 521.168 888.201 521.214C897.68 521.27 923.183 520.567 931.356 521.606C932.661 522.963 932.248 522.516 932.394 524.937C920.702 525.696 903.082 525.083 891.079 525.197C879.674 525.304 860.475 525.774 849.529 524.876C847.686 523.618 848.272 524.259 847.62 521.549Z"/><path fill="#EEB12E" d="M848.751 565.58C857.705 565.583 906.872 564.491 912.141 566.211C912.897 568.053 912.775 567.289 911.874 569.656C903.817 569.721 851.775 570.911 848.713 568.414L848.751 565.58Z"/><path fill="#FBF3D6" d="M657.523 618.304C677.694 617.459 700.244 618.595 720.699 618.143C737.19 618.207 753.711 617.932 770.196 618.256C775.478 618.36 781.726 621.655 782.301 627.339C784.136 645.495 782.659 664.306 782.907 682.643C783.156 701.041 783.115 719.572 782.95 737.966C782.757 745.589 779.3 749.24 772.181 750.747C750.476 750.586 728.77 750.549 707.065 750.635C692.81 750.696 678.577 750.769 664.321 750.696C654.211 751.162 648.009 746.891 648.129 736.079C648.505 702.509 648.139 668.925 648.071 635.353C648.054 626.587 649.275 622.116 657.523 618.304Z"/><path fill="#E2DFDA" d="M676.443 646.817C701.467 646.218 727.177 647.019 752.237 647.064C753.931 647.067 754.222 647.7 755.047 648.889L754.34 650.573C732.314 652.35 707.804 650.001 685.524 650.981C682.55 651.112 677.949 651.475 676.025 649.198L676.443 646.817Z"/><path fill="#E2DFDA" d="M675.801 669.313C684.171 668.657 753.144 668.51 755.516 670.156L755.891 672.738C748.207 673.289 678.461 673.605 676.192 672.015L675.801 669.313Z"/><path fill="#E2DFDA" d="M678.156 691.265C685.466 690.959 731.679 690.323 734.778 692.611L734.919 694.12L733.412 695.37C725.405 695.394 679.217 696.636 676.094 693.976L676.384 692.383L678.156 691.265Z"/><path fill="#F8F8F8" d="M656.07 489.894C686.276 489.347 716.754 490.221 746.992 489.801C756.254 489.673 765.8 489.567 775.014 490.211C778.64 490.464 781.079 494.193 782.985 496.89C783.836 525.246 783.073 557.694 783.017 586.442C780.353 590.567 779.497 591.762 774.926 593.607C747.533 593.845 720.139 593.941 692.745 593.893C680.883 593.89 667.916 594.427 656.286 593.046C646.275 591.858 648.129 575.759 648.112 568.702C648.069 551.196 648.509 533.714 648.163 516.207C647.951 505.517 645.4 495.869 656.07 489.894Z"/><path fill="#6C6EFE" d="M804.44 311.751C840.625 306.391 874.308 331.374 879.69 367.565C885.072 403.755 860.118 437.463 823.94 442.87C787.727 448.283 753.99 423.294 748.602 387.069C743.215 350.845 768.22 317.115 804.44 311.751Z"/><path fill="#F8F8F8" d="M812.392 344.777C813.299 344.77 816.061 344.798 816.612 345.159C822.278 348.873 843.233 369.893 845 374.647C844.649 383.771 837.319 382.287 832.433 377.725C828.344 373.909 824.324 369.585 820.48 365.55C820.643 377.649 821.329 393.499 820.08 405.517C819.951 406.76 818.245 408.628 817.351 409.58C806.701 410.502 808.051 400.875 808.121 392.905C808.197 384.11 808.412 375.504 808.267 366.692C805.479 369.387 793.93 381.256 790.34 381.167C769.236 380.646 807.005 349.908 812.392 344.777Z"/><path fill="#E2DFDA" d="M323.628 874.021C332.753 875.359 339.45 875.517 348.708 875.581C347.595 878.628 347.849 883.144 347.951 886.47C351.212 891.877 352.116 893.16 357.779 895.935C367.68 896.405 379.093 899.765 382.494 909.957L382.725 911.075C386.012 911.925 411.405 912.448 412.824 910.275C412.219 903.954 412.894 899.907 413.778 893.752C415.03 888.512 416.469 880.771 415.691 875.447C422.616 874.704 432.36 875.394 439.862 875.005C438.751 884.579 439.639 892.049 449.907 895.794C460.041 897.359 473.988 899.117 475.066 911.677L882.081 911.645L971.196 911.642C977.392 911.643 1004.17 912.059 1008.21 911.046L1008.72 909.225C1013.51 897.298 1031.32 892.863 1042.91 893.714C1047.19 894.539 1054.86 894.249 1059.46 894.227C1060.47 899.166 1061.13 904.333 1060.93 909.388L1061.51 911.176C1066.57 912.54 1088 910.95 1095.5 911.885C1096.37 898.251 1115.57 893.572 1126.69 893.645C1131.03 894.582 1140.09 894.161 1145.05 894.255C1145.47 897.627 1146.08 901.583 1146.28 904.919C1147.39 906.931 1146.78 911.496 1147.75 911.569C1156.56 912.23 1165.34 911.099 1174.24 911.805C1175.25 898.354 1194.12 893.254 1205.22 893.589C1210.21 894.528 1218.52 894.152 1223.93 894.194C1224.42 897.644 1224.9 900.676 1225.02 904.169C1226.28 906.182 1225.72 909.144 1225.58 911.71C1233.42 911.593 1247.09 911.051 1254.51 911.784C1255.44 898.194 1275.35 893.014 1286.41 893.585C1290.98 894.486 1299.85 894.213 1304.87 894.211C1305.51 900.914 1305.95 905.177 1305.71 911.918C1311.27 911.43 1350.18 909.838 1351.18 914.071C1347.79 915.956 1335.9 914.9 1331.5 914.897L1292.8 914.975L1117.68 915.033L426.944 915.051L282.42 914.988L239.425 914.992C233.647 915.01 222.035 916.123 217.488 913.643L217.745 912.173L216.987 913.061L217.354 912.33C221.615 911.129 245.536 911.653 251.327 911.655L320.355 911.585C320.024 904.434 320.428 900.584 321.551 893.737C323.366 886.635 324.439 881.315 323.628 874.021Z"/><path fill="#2D2D4E" d="M323.628 874.021C332.753 875.359 339.45 875.517 348.708 875.581C347.595 878.628 347.849 883.144 347.951 886.47C351.212 891.877 352.116 893.16 357.779 895.935C367.68 896.405 379.093 899.765 382.494 909.957C382.073 910.346 381.57 910.812 380.984 911.354C365.566 912.216 336.043 912.196 321.501 911.633L320.355 911.585C320.024 904.434 320.428 900.584 321.551 893.737C323.366 886.635 324.439 881.315 323.628 874.021Z"/><path fill="#F8A8A0" d="M323.628 874.021C332.753 875.359 339.45 875.517 348.708 875.581C347.595 878.628 347.849 883.144 347.951 886.47C351.212 891.877 352.116 893.16 357.779 895.935C348.995 900.627 331.965 895.46 321.551 893.737C323.366 886.635 324.439 881.315 323.628 874.021Z"/><path fill="#2D2D4E" d="M415.691 875.447C422.616 874.704 432.36 875.394 439.862 875.005C438.751 884.579 439.639 892.049 449.907 895.794C460.041 897.359 473.988 899.117 475.066 911.677C460.197 911.7 429.748 912.098 413.965 911.366C413.585 911.003 413.204 910.639 412.824 910.275C412.219 903.954 412.894 899.907 413.778 893.752C415.03 888.512 416.469 880.771 415.691 875.447Z"/><path fill="#F8A8A0" d="M415.691 875.447C422.616 874.704 432.36 875.394 439.862 875.005C438.751 884.579 439.639 892.049 449.907 895.794C440.248 900.617 424.823 895.817 413.778 893.752C415.03 888.512 416.469 880.771 415.691 875.447Z"/><path fill="#2D2D4E" d="M1042.91 893.714C1047.19 894.539 1054.86 894.249 1059.46 894.227C1060.47 899.166 1061.13 904.333 1060.93 909.388L1060.18 911.192C1056.93 913.111 1018.45 912.329 1011.54 911.87C1009.73 911.75 1009.6 910.739 1008.72 909.225C1013.51 897.298 1031.32 892.863 1042.91 893.714Z"/><path fill="#2D2D4E" d="M1286.41 893.585C1290.98 894.486 1299.85 894.213 1304.87 894.211C1305.51 900.914 1305.95 905.177 1305.71 911.918C1300.65 912.546 1259.46 912.372 1254.51 911.784C1255.44 898.194 1275.35 893.014 1286.41 893.585Z"/><path fill="#2D2D4E" d="M1205.22 893.589C1210.21 894.528 1218.52 894.152 1223.93 894.194C1224.42 897.644 1224.9 900.676 1225.02 904.169C1225.01 907.046 1225.39 909.39 1223.8 911.623C1219.93 912.585 1179.44 912.567 1174.24 911.805C1175.25 898.354 1194.12 893.254 1205.22 893.589Z"/><path fill="#2D2D4E" d="M1126.69 893.645C1131.03 894.582 1140.09 894.161 1145.05 894.255C1145.47 897.627 1146.08 901.583 1146.28 904.919C1146.24 907.467 1146.58 909.792 1145.07 911.633C1141.04 912.593 1100.68 912.632 1095.5 911.885C1096.37 898.251 1115.57 893.572 1126.69 893.645Z"/><path fill="#2D2D4E" d="M345.687 414.049C355.379 364.475 421.38 375.83 422.344 407.496C422.019 411.525 423.259 415.228 424.491 419.047C430.731 438.385 427.574 461.082 403.196 462.471C402.976 467.587 401.81 474.739 405.818 478.515C396.996 494.03 380.914 487.494 372.057 475.931C377.572 469.194 376.297 460.617 372.5 453.444C366.154 453.118 359.639 445.128 355.33 440.611C346.241 451.853 332.12 455.625 323.169 442.117C320.12 437.574 319.101 431.965 320.358 426.64C323.289 413.969 334.574 411.556 345.687 414.049Z"/><path fill="#F8A8A0" d="M394.112 426.203C399.894 423.356 405.133 420.585 409.831 415.887C412.137 413.582 415.927 405.996 417.924 405.305L422.344 407.496C422.019 411.525 423.259 415.228 424.491 419.047C430.731 438.385 427.574 461.082 403.196 462.471C402.976 467.587 401.81 474.739 405.818 478.515C396.996 494.03 380.914 487.494 372.057 475.931C377.572 469.194 376.297 460.617 372.5 453.444C379.521 449.163 380.716 446.994 384.381 439.678C374.149 429.243 382.215 417.418 394.112 426.203Z"/><path fill="#2D2D4E" d="M1211.53 389.697L1210.93 389.133C1208.61 386.97 1205.79 383.551 1206.14 380.399C1207.72 366.289 1229.32 363.867 1239.33 364.706C1252.24 365.789 1265.2 370.819 1273.21 380.134C1278.9 386.7 1281.73 395.267 1281.08 403.932C1280.01 417.971 1267.39 433.154 1257.4 442.307C1258.23 447.435 1258.34 450.422 1261.49 454.627C1251.15 456.074 1242.14 457.249 1232.68 462.162C1232.12 458.784 1230.18 453.11 1229.12 449.656C1209.34 442.555 1200.06 426.649 1206.38 405.766C1208 400.406 1209.78 395.03 1211.53 389.697Z"/><path fill="#F8A8A0" d="M1211.53 389.697C1239.51 399.242 1221.2 399.677 1232.72 415.03C1237.07 412.656 1244.09 403.932 1248.79 413.336C1249.82 415.41 1249.99 417.804 1249.27 420.003C1248.62 421.943 1246.28 424.493 1244.88 426.098C1247.05 431.864 1250.15 441.727 1257.4 442.307C1258.23 447.435 1258.34 450.422 1261.49 454.627C1251.15 456.074 1242.14 457.249 1232.68 462.162C1232.12 458.784 1230.18 453.11 1229.12 449.656C1209.34 442.555 1200.06 426.649 1206.38 405.766C1208 400.406 1209.78 395.03 1211.53 389.697Z"/><path fill="#2D2D4E" d="M1075.86 394.889C1058.38 380.148 1076.25 372.722 1087.47 367.361C1101.33 360.738 1103.83 362.465 1117.19 369.894C1120.12 371.496 1128.79 370.467 1131.99 375.498C1136.95 380.665 1151.4 405.549 1146.41 412.237C1136.42 425.613 1139.19 443.192 1118.29 443.349C1118.24 448.003 1118.35 453.427 1116.71 457.802C1109.37 457.154 1097.25 455.853 1090.49 458.509C1090.65 454.966 1090.51 450.793 1090.48 447.194C1064.12 440.121 1069.83 415.447 1075.86 394.889Z"/><path fill="#F8A8A0" d="M1075.86 394.889C1082.19 397.887 1091.39 397.017 1094.66 401.806C1095.32 408.671 1091.2 410.012 1095.2 415.279C1098.97 415.619 1104.07 407.763 1108.95 413.915C1113.7 419.889 1109.92 424.314 1105.77 428.004C1109.05 435.555 1110.74 439.851 1118.29 443.349C1118.24 448.003 1118.35 453.427 1116.71 457.802C1109.37 457.154 1097.25 455.853 1090.49 458.509C1090.65 454.966 1090.51 450.793 1090.48 447.194C1064.12 440.121 1069.83 415.447 1075.86 394.889Z"/><path fill="#F8A8A0" d="M525.015 481.025C528.996 478.917 531.931 474.582 535.374 471.708C541.598 466.514 558.371 452.781 566.031 461.218C566.007 465.295 560.98 468.495 557.807 470.701C566.186 488.735 549.017 491.935 537.108 498.96C534.492 496.274 527.871 485.048 525.015 481.025Z"/><path fill="#F8A8A0" d="M880.848 448.664C877.787 445.302 873.165 441.099 875.886 436.245C876.751 434.701 878.289 433.651 880.042 433.406C884.93 432.681 892.843 438.787 896.657 441.272C903.05 445.437 906.924 452.923 912.363 457.491C910.495 460.452 902.535 471.91 900.349 474.122C897.808 472.635 895.01 471.036 892.418 469.65C881.754 463.948 875.595 461.624 880.848 448.664Z"/><path fill="#F8A8A0" d="M315.063 654.86C317.976 655.091 327.747 655.665 330.093 656.198C330.746 662.417 333.503 672.325 331.638 678.316C330.979 680.433 327.971 681.293 325.825 682.293C324.565 684.209 324.463 684.848 323.754 687.071C321.154 689.557 316.314 689.908 313.611 687.782C300.549 677.505 308.693 664.542 315.063 654.86Z"/><path fill="#F8F8F8" d="M1134.89 304.152C1142.31 303.632 1148.76 309.22 1149.3 316.648C1149.85 324.076 1144.28 330.542 1136.85 331.106C1129.4 331.672 1122.9 326.074 1122.36 318.616C1121.81 311.158 1127.43 304.676 1134.89 304.152Z"/></svg>